PathFileType	4	(X/Y/Z)	Patient4_TMGait_0pt5_01_left_01.trc.trc
DataRate	CameraRate	NumFrames	NumMarkers	Units	OrigDataRate	OrigDataStartFrame	OrigNumFrames
74.468085106383	74.468085106383	5	33	mm	74.468085106383	71	       141
Frame#	Time	L.ASIS			Sacral			L.Shoulder			Chest			R.Shoulder			Neck			R.ASIS			R.Thigh.Superior			R.Thigh.Lateral			R.Thigh.Inferior			R.Patella			L.Thigh.Superior			L.Thigh.Lateral			L.Thigh.Inferior			L.Patella			L.Shank.Superior			L.Shank.Lateral			L.Shank.Inferior			R.Shank.Superior			R.Shank.Lateral			R.Shank.Inferior			R.Heel			R.Midfoot.Superior			R.Midfoot.Lateral			R.Toe			L.Heel			L.Midfoot.Lateral			L.Midfoot.Superior			L.Toe			L.Elbow			L.Wrist			R.Elbow			R.Wrist			
		X1	Y1	Z1	X2	Y2	Z2	X3	Y3	Z3	X4	Y4	Z4	X5	Y5	Z5	X6	Y6	Z6	X7	Y7	Z7	X8	Y8	Z8	X9	Y9	Z9	X10	Y10	Z10	X11	Y11	Z11	X12	Y12	Z12	X13	Y13	Z13	X14	Y14	Z14	X15	Y15	Z15	X16	Y16	Z16	X17	Y17	Z17	X18	Y18	Z18	X19	Y19	Z19	X20	Y20	Z20	X21	Y21	Z21	X22	Y22	Z22	X23	Y23	Z23	X24	Y24	Z24	X25	Y25	Z25	X26	Y26	Z26	X27	Y27	Z27	X28	Y28	Z28	X29	Y29	Z29	X30	Y30	Z30	X31	Y31	Z31	X32	Y32	Z32	X33	Y33	Z33	

71	2.110000000000	769.594493394850	961.148208725652	298.678802533686	538.663903410995	1000.101213130941	426.685300675899	724.907044986948	1432.479632618129	263.019233580314	802.262924749016	1366.943348487509	439.679975114899	690.694490680205	1440.646853337078	597.897925405965	698.909398600813	1495.190961433901	411.384602318738	749.899410068866	943.034086274055	573.816181048108	821.656921507659	761.071379233328	553.532193031102	765.500308787810	642.333251163747	618.765680235065	858.152139782884	600.909997711046	544.476113168249	888.807826066017	520.775755412609	558.755590141377	784.599240726041	738.047904058420	328.578436746554	677.446285438711	635.845578420330	265.846397230267	740.516717816520	548.224069699998	334.016108978461	728.306932211662	480.179047575639	345.072377889470	699.070560153316	412.205592310100	338.526946755147	603.012445170778	301.086896570018	291.041390393534	647.394847433821	190.469309909925	368.148934060765	879.186974184318	437.019766360180	567.492528239533	834.892838090698	319.542403338855	628.793160407797	913.391243447703	240.034108887216	579.565186095686	837.377910504353	45.569756372694	546.928137493032	991.918090824722	133.984662857955	595.413498914975	918.156602209505	50.952344514755	624.537762016628	1116.771858469115	107.147170839173	627.117797526449	513.814918911421	38.306630851427	420.125761896994	584.921595582980	34.491505396131	336.886450194167	669.349954985901	94.970282381370	359.888054571441	796.520479304012	43.362916725513	328.444347264396	799.524614456905	1106.003818818756	107.700286032658	1038.572743630094	1009.142964297252	142.336070539874	556.458269586381	1122.939910316495	702.572757060127	544.156937634542	864.129627661051	730.527332177746	
72	2.123428571429	770.707824511404	960.593536134255	300.285978034123	539.373358140128	999.209045647390	427.826459455694	725.501995111671	1431.408203104779	264.177805994579	802.301412597606	1366.374889015249	441.205281243484	690.138138122804	1440.207798424147	598.953995052311	698.858578083263	1494.387161801088	412.268893464338	750.566210633339	942.128541707404	575.501850473800	822.332722447227	760.034749936772	554.839861701740	765.838019835128	640.916910012996	619.491969508668	858.354008424628	599.667785429157	545.156605901426	888.790199405190	519.857790128218	558.902852960734	783.642359441867	736.874092524662	329.624476966760	675.495555079214	635.604409301854	266.652055181793	737.668206726554	547.361745594964	334.745400874052	724.908033297540	479.250164574458	345.581186917903	695.070931077350	411.592883012827	338.966054054247	598.002110843425	301.331858261809	291.266765998491	641.547870897600	190.210853966323	368.173768112258	879.505925001236	435.895526267596	567.607711395568	835.796088419447	318.327234748422	629.041036952628	914.203353332678	239.097486808157	579.460615513053	838.151271545794	45.417362031595	547.082762959819	993.385884069682	132.418258303130	594.715278379549	919.366517986363	50.012288167225	624.170717631656	1118.154310746049	104.627242512278	625.511064447037	507.080788540265	38.468283031136	420.065382868494	578.168535712259	34.548423391588	336.860729989547	662.678476874781	94.925888363678	359.849948509533	789.766425613830	43.136509389944	328.442552826555	800.915978906159	1104.696704996504	109.877706466490	1041.344731975738	1011.793990146673	144.679262673254	553.393108284815	1123.826218531327	703.050983241382	541.499846531258	864.826874296709	730.814597570502	
73	2.136857142857	771.820442891339	959.943375104845	301.947731884858	540.207069985258	998.163307299395	429.298671737331	725.953741145512	1430.247673235023	265.487022254428	802.323970021866	1365.768214720451	442.843286205132	689.555893006411	1439.638628776834	600.169238656174	698.712541002770	1493.482768473252	413.326435379148	751.550130384069	941.139332556782	577.252289630293	823.679591044548	759.131738267880	555.980363042388	767.073162242195	639.559150411998	620.125784403798	859.336396629043	598.545947164801	545.662688312005	889.465381010580	518.709221763798	559.017822898559	782.902481458820	735.657552621933	330.721651352212	673.817110909550	635.268438992989	267.586657995465	735.174257518969	546.427535717331	335.575080659575	721.856256601643	478.198510911644	346.241707959325	691.380959968649	410.859098320697	339.524628903874	593.236439349606	301.559079075913	291.586965213015	635.813569348170	189.901662430033	368.258537317451	879.934979280462	434.267896277127	567.633905080179	835.866330810498	316.973102413443	629.153807876164	913.417358278699	237.410126976937	579.175443796298	835.671902887223	45.320764957595	547.090109101053	992.180648406198	129.682323481237	593.796684544590	917.296684344485	48.638433091577	623.712262715162	1116.632090779059	100.023507138959	623.785976662086	500.352578914229	38.629827230035	419.989819695000	571.424161132261	34.620171084395	336.834569677040	656.004519057889	94.897611455125	359.831053092506	783.009707553079	42.895157325434	328.444794054232	802.014274243763	1103.143320899481	112.348595319334	1043.536373274810	1013.424216042403	147.224891428390	550.986514622624	1124.230087982675	703.614334094310	540.080816901356	865.019528476180	731.198410875054	
74	2.150285714286	772.918353945842	959.189573452404	303.656570821502	541.185562049697	996.980478141379	431.111618634238	726.254763679288	1429.009465062342	266.951036912872	802.348540588577	1365.127387645368	444.591364695025	688.971630307178	1438.935790649723	601.544774169444	698.487394362858	1492.484168559658	414.575200550587	752.863288116997	940.060666812573	579.052331483220	825.618720963395	758.289576756826	556.982578693899	769.032915390290	638.229388715259	620.678722817907	860.971516827488	597.498561425151	546.035347167649	890.681299973046	517.315867289552	559.085839752445	782.390707187495	734.401495461140	331.854602020599	672.391534799664	634.847028315787	268.653483486186	733.016734677607	545.423923587755	336.496840917653	719.134458063103	477.024838468774	347.053176238225	687.980613866893	410.008396421296	340.201794528392	588.690659170395	301.775706009304	292.007800638219	630.178747989203	189.547497898089	368.402337928504	880.430513398285	432.171050387577	567.578279242144	835.218891548144	315.436769171293	629.149927549331	911.277274478365	235.026685174740	578.719154484286	830.462700628700	45.157449029628	546.976548045111	988.676925545286	125.965637826830	592.671409932582	912.465643507460	46.876939753355	623.193593345788	1112.651924726579	93.772888247199	621.969575310334	493.624913546462	38.788727355565	419.893829665285	564.690198986001	34.703508650528	336.806566007025	649.326293972432	94.890114684301	359.829290877037	776.255342475646	42.637106528248	328.447231290603	802.828975467812	1101.377367152881	115.078065008228	1045.176305577384	1014.018361475122	149.958700648829	549.274626855943	1124.141164627531	704.325973243486	539.896669832317	864.705803869630	731.699465392378	
75	2.163714285714	773.999103485135	958.340052559097	305.412138553298	542.320776992961	995.693337913190	433.263339461639	726.403989805825	1427.716270723825	268.575048830466	802.397451202646	1364.465797200799	446.446631435397	688.423029473650	1438.112371313238	603.084830194007	698.208222517704	1491.411690811685	416.032121382893	754.504856269347	938.902193709337	580.890263734201	828.048036779052	757.448716909535	557.879841880250	771.520013759621	636.912253574381	621.164782007991	863.105611960971	596.494012714237	546.311083147648	892.266086260047	515.692583064696	559.086489571205	782.105642098779	733.117614676774	333.015114688665	671.189179367667	634.359024593198	269.857799619016	731.168130527376	544.363052073681	337.506113693608	716.722637500152	475.739403648886	348.008194205422	684.841497170947	409.056326345339	340.993522690448	584.329572533009	301.998621283348	292.536121227713	624.628093903898	189.161830728052	368.602594479657	880.945563808151	429.686978455504	567.452378534077	834.004488960945	313.722740810396	629.056446631161	908.081783338881	232.081148303520	578.113870775284	823.164335394824	44.869444163066	546.778577760573	983.342543725363	121.561181704342	591.370269518106	905.508892740538	44.849044314257	622.651979278256	1106.751991994161	86.443885652819	620.101509765663	486.891565233203	38.948963250309	419.773884538681	557.968630816715	34.794481416567	336.775678634118	642.646536458834	94.906833465017	359.839533859614	769.511167451108	42.362821269688	328.445210985010	803.364617989123	1099.439654229549	118.035210923071	1046.279441210332	1013.570335054304	152.855037024417	548.298051879228	1123.575307631906	705.253527941970	540.940349508735	863.906423844160	732.334815636888	
